<?xml version="1.0" encoding="UTF-8"?>
<svg version="1.1" viewBox="0 0 2048 2048" width="512" height="512" xmlns="http://www.w3.org/2000/svg">
<path transform="translate(937,188)" d="m0 0h172l21 2 14 4 11 6 12 9 10 9 8 7 15 14 10 9 24 22 2 1v2l4 2 7 7 8 7 26 24 10 9 13 12 4 3v2l4 2 7 8 8 11 8 16 4 15 2 13 1 2 31 11 95 35 25 9 21 9 12 7 13 12 10 11 16 24 14 25 12 23 12 22 16 32 9 17 8 16 20 41 15 33 18 40 13 30 23 54 13 31 17 40 30 72 24 60 18 47 17 46 8 21 9 26 18 50 14 40 18 52 17 50 20 60 16 50 18 57 18 60 6 21v5l-20 12-22 12-21 11-33 15-31 13-41 15-36 12-42 12-37 9-28 6-6 1-9-17-13-28-16-33-13-28-16-33-13-28-14-29-11-23-16-34-19-40-14-29-13-28-15-31-13-28-8-15 3 26 17 181 20 212 4 41v9l-21 4-76 12-77 11-66 8-52 5-58 4-41 2-31 1-54 1h-61l-53-1-52-2-53-3-57-5-54-6-67-9-80-12-55-9-2-1 1-16 17-180 25-265v-6l-8 16-14 29-6 13-17 36-12 25-16 34-12 25-11 24-6 12-11 23-12 26-8 16-10 22-8 16-12 26-8 16-18 38-11 23-2 2-10-2-29-6-43-11-40-12-44-15-41-16-38-17-36-18-24-14-10-6-2-2 2-10 18-61 18-58 21-65 20-61 19-56 10-28 10-29 15-43 19-53 14-38 15-40 8-21 19-49 11-27 17-41 36-86 48-112 18-40 8-18 8-16 12-25 24-48 10-19 14-27 12-22 14-25 11-17 8-11 9-11 11-9 10-7 18-8 152-56 4-1 3-11 4-17 6-15 11-16 7-8h2l2-4h2v-2l8-7 16-15 8-7 24-22 13-12 12-11 8-7 16-15 12-11 10-9 14-12 16-10 12-4 11-2zm-23 75-6 5v2l-4 2-12 11-8 7-12 11-8 7-10 9-8 7-10 9-8 7-12 11-8 7-10 9-8 7-10 9-6 9-3 14-3 61-3 84-1 21-1 43 1 17 4 20 5 11 6 8 8 6 9 4 9 2h24l15-3 16-6 16-9 16-12 11-9 14-12 10-9 3-2v-2l4-2 5-1 6 7 8 7 23 23-6 7-15 16-11 14-8 13-4 16 1 9 5 10 4 5 12 8 15 6 31 10 55 17 31 10 45 14 15 5h3l-1-16-6-54-7-49-7-41v-6l7-6 12-9 13-10 4 1 12 12 8 7 13 11 13 9 12 6 14 4 8 1h12l10-4 8-7 7-14 4-18 1-10v-22l-6-162-2-30-3-12-5-9-12-12-8-7-60-54-12-11-14-12-11-10h-2l-5 53-7 50-8 41-8 32-11 33-9 20-10 17-8 11-11 12-9 10-14 15-12 13-5 6h-4l-2-4-15-16-11-12-15-16-12-14-11-18-9-19-9-25-6-21-8-38-6-36-6-48-5-62zm429 212 4 117v31l-2 22-4 19-6 18-8 15-7 9v2h-2l-5 5-9 7-15 7-15 4-8 1h-19l-16-3-16-6-12-6-3-1 7 52 5 43 3 32 2 4 10 8 10 11 7 10 9 19 6 20 3 18 1 11 1 34v802l15-1 71-8 89-12 20-3 1-1-1-18-20-219-26-285-2-21 36-6 38-6h5l7 14 13 28 15 31 11 23 16 34 15 31 13 28 15 31 13 28 8 17 8 16 18 38 13 27 13 28 19 39 13 28 19 39 4 9 8-1 42-12 38-12 34-12 35-14 30-14 18-10 2-3-8-26-13-41-17-53-21-64-21-62-15-43-21-60-19-53-18-49-16-43-15-39-15-38-16-39-18-43-27-63-10-23-18-41-16-36-18-40-14-30-16-34-16-33-12-24-10-19-14-26-11-19-3 3-11 30-13 40-13 50-7 31-6 34-4 27-3 24-3 29-2 32-1 6-6 1h-57l3-44 5-45 7-44 9-45 11-44 10-34 15-44 16-41 6-13-2-4-20-7-43-16-55-20zm-639 0-34 12-78 29-10 4 6 16 11 27 11 30 11 33 12 42 10 42 8 41 6 40 4 38 3 47-2 1h-60l-1-1-4-49-5-44-6-39-5-26-10-43-10-36-8-25-13-37-3-7-5 5-14 25-10 19-24 48-11 23-17 35-13 29-7 14-9 20-8 18-18 41-36 84-11 26-18 42-15 36-13 33-17 44-20 54-21 58-19 53-22 63-13 37-32 96-16 50-17 53-10 32v5l8 5 32 16 31 13 35 13 27 9 47 14 21 6h5l8-16 13-27 13-28 19-39 10-22 8-16 12-25 16-34 13-27 11-23 16-34 13-27 11-23 16-34 13-27 11-24 8-16 17-36 5-11 18 2 60 10 1 4-4 43-8 88-8 87-10 109-8 88-5 52-5 57-1 15 15 3 80 11 68 8 61 6 54 4 35 2 62 2h124l58-2 51-3 9-1v-829l-3-19-4-13-6-12-8-10-11-9-14-8-15-7-28-9-82-25-74-23-30-10-16-8-13-9-14-14-9-15-5-13-3-11-1-8-9 2-20 6-19 3h-24l-20-3-17-5-17-9-11-9-9-10-8-13-5-11-6-23-3-21-1-14v-26l4-112v-13z"/>
<path transform="translate(1057,1047)" d="m0 0 15 1 12 4 10 7 8 8 6 10 3 9 1 5v14l-3 11-5 10-8 10-11 8-11 4-6 1h-16l-12-4-10-7-8-8-8-14-3-14v-8l3-14 5-10 9-10 9-7 9-4z"/>
<path transform="translate(870,1047)" d="m0 0 15 1 11 4 10 7 7 7 5 7 5 13 1 6v12l-3 12-7 13-6 7-11 8-10 4-5 1h-17l-10-3-11-6-10-10-6-10-4-11-1-7v-8l3-14 4-8 8-10 10-8 11-5z"/>
<path transform="translate(1058,1427)" d="m0 0 14 1 11 4 11 7 10 11 6 13 2 9v13l-2 9-6 12-8 10-10 7-12 5-6 1h-16l-12-4-10-7-8-8-8-14-3-14 1-14 3-10 7-12 9-9 10-6 9-3z"/>
<path transform="translate(871,1427)" d="m0 0 14 1 11 4 10 7 7 7 6 10 4 10 1 6v12l-3 12-5 10-8 10-11 8-11 4-5 1h-16l-10-3-11-6-10-10-6-10-4-11-1-13 2-12 5-12 9-11 9-7 11-5z"/>
<path transform="translate(1057,1239)" d="m0 0 16 1 11 4 11 7 8 9 7 14 2 9v13l-3 11-5 10-8 10-11 8-10 4-5 1h-17l-10-3-9-5-10-9-7-10-5-13-1-14 3-14 6-12 8-9 11-7 11-4z"/>
<path transform="translate(870,1239)" d="m0 0h8l14 3 11 6 9 8 7 11 4 10 1 6v13l-4 14-7 11-9 9-10 6-10 3-13 1-14-3-10-5-12-11-7-10-4-11-1-13 2-12 4-9 4-6 8-9 9-6 9-4z"/>
<path transform="translate(1488,1344)" d="m0 0"/>
<path transform="translate(536,572)" d="m0 0"/>
</svg>
