<?xml version="1.0" encoding="UTF-8"?>
<svg version="1.1" viewBox="0 0 900 900" width="225" height="225" xmlns="http://www.w3.org/2000/svg">
<path transform="translate(430,21)" d="m0 0h28l41 3 24 4 26 7 22 8 19 10 11 8 10 9 8 9 7 12 4 13 2 11 1 12 6 8 9 8 11 9 23 23 11 16 10 18 10 22 11 29 10 31 12 45 9 40 9 48 8 50 8 64 4 39 4 48 3 45 2 53 2 66v31l-2 18-3 9-8 11-10 8-14 6-11 3-33 4h-19l-16-3-10-5-8-8-8-14-6-12h-395l-9 20-8 10-9 6-8 3-15 2-18-1-20-3-17-4-20-8-11-8-12-12-1-2v-53l2-44 2-61 4-63 4-48 5-45 4-33 7-48 10-54 8-37 10-40 12-39 10-29 12-29 8-17 13-21 13-16 8-8 14-11 11-8 7-8 2-6 2-22 5-14 6-11 9-10 7-7 15-10 16-8 22-8 22-5 18-3zm-26 31-28 4-20 5-18 6-17 9-11 10-5 7-4 11-1 5-1 38-18 11-14 10-11 9-12 12-10 14-9 15-11 25-13 36-11 36-11 42-9 42-7 36-8 50-8 63-4 42-3 35-4 65-2 96v48l5 3 18 6 22 4 10 1h25l5-5 7-19 6-25 4-21 7-48 9-73 6-50 8-66 6-48 6-49 6-45 5-38 5-29 4-12 6-2h9l8 3 6 7 2 6v15l-4 44-17 148-15 125-6 49-9 75-2 13 1 1h150l1-1v-31h-132l1-50 3-21 4-13 9-21 11-26 10-30 9-35 6-27 79-1v-323l-9-3-19-5-17-6-20-10-21-14-11-9-12-10-10-13-2-6 1-7 3-5 12-6h9l9 4 10 7 18 14 15 9 14 7 21 7 20 3h23l19-3 17-5 18-8 16-10 13-10 12-9 15-8 6 1 8 4 6 7 2 4v7l-6 10-10 10-11 9-19 13-17 10-16 8-16 6-23 6v324l63 1 15 2 3 24 7 28 12 35 12 29 11 24 4 11 2 10 1 10-1 27-1 19-80 2-48 2v32h148l-1-14-9-68-8-61-9-70-9-74-8-64-7-58-4-39v-26l4-6 6-5 5-2h8l5 2 2 5 5 15 6 32 9 62 35 270 9 65 6 37 5 21 6 16 3 6 1 1 49-1 15-2 10-5 5-8 2-10 1-8v-56l-3-85-5-68-4-42-6-52-7-49-7-42-12-60-12-48-12-40-12-32-14-29-9-14-11-13-9-9-14-11-16-11-11-7h-2v-41l-5-10-13-13-10-7-14-8-15-6-18-5-26-4-10-1zm-20 540-12 40-11 28-9 20-10 23-2 6v9l5 5 4 1h74l1-1v-131zm92 0v132h88l-1-6-8-22-14-30-10-26-8-25-6-21-1-2z" fill="#050505"/>
<path transform="translate(254,832)" d="m0 0h391l3 3-1 2-395-1z" fill="#A7A7A7"/>
<path transform="translate(473,224)" d="m0 0h3v324l-4-1v-322z" fill="#A8A8A8"/>
<path transform="translate(473,588)" d="m0 0h43l2 2 1 10-2-3-1-5h-40v132h88v3h-91l-1-1v-137z" fill="#CDCDCD"/>
<path transform="translate(385,588)" d="m0 0h27l15 1 1 137-1 1-20 1h-43l-27-1-1-2v-8l3-10 3-6 1 2-2 6v9l4 4 4 1h74l1-131h-40l-2 10-2 3 1-9 3-7z" fill="#EDEDED"/>
<path transform="translate(621,159)" d="m0 0 5 2 11 8 11 10 6 5 9 11 9 13 13 27 11 28 12 38 11 42 9 40 9 47 8 50 8 61 6 62 4 52v19h-1l-5-68-4-42-6-52-7-49-7-42-12-60-12-48-12-40-12-32-14-29-9-14-11-13-8-8-14-11-8-6z" fill="#CFCFCF"/>
<path transform="translate(475,768)" d="m0 0h129v1l-80 2-30 1h-18v32h31l118 1v2h-149l-4-2v-35z" fill="#D6D6D6"/>
<path transform="translate(253,833)" d="m0 0h330l28 1v1l-359 1z" fill="#FEFEFE"/>
<path transform="translate(297,768)" d="m0 0h131v4h-132z" fill="#D2D2D2"/>
<path transform="translate(763,674)" d="m0 0h1l2 46 1 14 1 53v27l-1 15-3 8-7 7-13 4-25 3h-33l-2-2 13-1 36-1 15-2 10-5 5-10 2-15v-56l-2-59z" fill="#D5D5D5"/>
<path transform="translate(385,588)" d="m0 0h27l15 1v16h-1l-1 120h-56v-1l54-1 1-131h-40l-2 10-2 3 1-9 3-7z" fill="#A7A7A7"/>
<path transform="translate(476,804)" d="m0 0h31l118 1v2h-149l-3-2z" fill="#A7A7A7"/>
<path transform="translate(276,803)" d="m0 0 25 1 127 1v2h-150l-2-1z" fill="#A8A8A8"/>
<path transform="translate(415,49)" d="m0 0h48l31 2 25 4v1l-12-1-18-2h-85l-28 4-9 2-4-1 17-4 23-4z" fill="#ddd"/>
<path transform="translate(425,601)" d="m0 0 2 4 1 121-4 1z" fill="#FCFCFC"/>
<path transform="translate(583,832)" d="m0 0h62l3 3-1 2-38-1v-1l-26-1z" fill="#B7B7B7"/>
<path transform="translate(621,159)" d="m0 0 5 2 11 8 11 10 6 5 9 11 9 13 13 27 2 5-1 4-8-18-11-21-9-12-11-12-10-9-16-12z" fill="#E5E5E5"/>
<path transform="translate(385,588)" d="m0 0h27l15 1v3h-43l-2 10-2 3 1-9 3-7z" fill="#A9A9A9"/>
<path transform="translate(558,68)" d="m0 0 5 1 14 8 11 9 9 9 5 9 1 4v23l-2-1-1-7-1-17-5-10-12-12-10-7-14-8z" fill="#DFDFDF"/>
<path transform="translate(242,730)" d="m0 0h1l-1 16-6 42-5 24-7 22-2 2 2-9 7-28 4-21z" fill="#ddd"/>
<path transform="translate(492,175)" d="m0 0 3 1-11 4-11 3-8 1h-30l-16-4v-1l13 1 7 1h23l19-3z" fill="#DBDBDB"/>
<path transform="translate(560,724)" d="m0 0h4v3h-85v-1l20-1h46z" fill="#FEFEFE"/>
<path transform="translate(253,833)" d="m0 0h54l36 1v1l-91 1z" fill="#FCFCFC"/>
<path transform="translate(743,846)" d="m0 0h6v1l-20 3-10 1h-33l-2-2 13-1 36-1z" fill="#DFDFDF"/>
<path transform="translate(144,839)" d="m0 0 9 2 26 5 10 1h27l-3 3-5 1-16-1-29-4-17-5z" fill="#DFDFDF"/>
<path transform="translate(309,86)" d="m0 0v3l-4 7-4 13-1 26h-1l-1-9-1-1v-15l2-9 7-12z" fill="#EBEBEB"/>
<path transform="translate(255,176)" d="m0 0 2 1-12 12-10 14-9 15-1-2 8-15 10-14 7-7z" fill="#E3E3E3"/>
<path transform="translate(604,707)" d="m0 0h1l2 15-1 27h-2z" fill="#D4D4D4"/>
<path transform="translate(403,50)" d="m0 0h7l-2 2-26 4-15 3-4-1 17-4z" fill="#D6D6D6"/>
<path transform="translate(630,108)" d="m0 0h1l2 19 6 8 1 2-5-2-6-4v-4h2l-1-4z" fill="#CFCFCF"/>
<path transform="translate(492,175)" d="m0 0 3 1-11 4-11 3h-5l1-3 16-3z" fill="#DBDBDB"/>
<path transform="translate(384,589)" d="m0 0h12l4 2-16 1-2 10-2 3 1-9z" fill="#D9D9D9"/>
<path transform="translate(214,847)" d="m0 0 2 1-5 3h-11l-8-1v-1z" fill="#D8D8D8"/>
<path transform="translate(621,159)" d="m0 0 5 2 11 8 8 7-2 1-14-11-8-6z" fill="#DFDFDF"/>
<path transform="translate(560,724)" d="m0 0h4v3h-19l1-2z" fill="#EFEFEF"/>
<path transform="translate(255,176)" d="m0 0 2 1-12 12-4 2 2-4 7-7z" fill="#ddd"/>
<path transform="translate(270,122)" d="m0 0h1l1 7-5 5-4 3-2-1 7-8z" fill="#DBDBDB"/>
<path transform="translate(297,110)" d="m0 0h1l1 9 1 1v15h-1l-1-9-1-1z" fill="#A7A7A7"/>
<path transform="translate(403,50)" d="m0 0h7l-2 2-16 2 3-3z" fill="#E1E1E1"/>
<path transform="translate(419,179)" d="m0 0 13 1 2 1v2l-8-1-7-2z" fill="#DBDBDB"/>
<path transform="translate(644,177)" d="m0 0 4 2 6 5 3 5-4-2-9-9z" fill="#F1F1F1"/>
<path transform="translate(386,589)" d="m0 0h10l4 2-16 1z" fill="#FEFEFE"/>
<path transform="translate(476,179)" d="m0 0 3 1-2 2-9 1 1-3z" fill="#DFDFDF"/>
</svg>
