<?xml version="1.0" encoding="UTF-8"?>
<svg version="1.1" viewBox="0 0 2048 2048" width="512" height="512" xmlns="http://www.w3.org/2000/svg">
<path transform="translate(991,211)" d="m0 0h66l51 3 40 4 35 5 40 8 38 10 36 12 28 11 29 14 21 11 24 15 20 14 15 11 13 11 11 9 24 24 9 11 9 10 12 16 12 17 12 19 12 21 13 25 12 27 11 29 11 34 9 34 7 32 8 47 4 32 4 44 1 24v99l-1 19-5 40-5 29-8 39-11 41-13 41-13 35-14 33-12 26-19 38-13 23-10 17-8 13-22 33-10 14-18 24-12 15-2 3 1 4 7 11 7 16 4 15 1 7v16l-3 16-6 18-3 7 20 8 13 8 10 8 9 9 7 10 8 15 4 11 3 16v20l-4 19-5 12v4l19 10 11 8 5 4v2l4 2 10 13 7 12 5 14 3 16 1 7v9l-3 20-6 16-6 11-8 11-5 6-11 9-17 10-14 5-12 3-16 1h-897l-17-1-15-4-13-6-12-7-13-11-11-14-6-10-6-15-2-7-2-19 1-14 3-16 5-13 6-11 8-11 14-14 13-8 16-8-6-16-4-20v-18l4-20 5-12 8-14 11-13 10-9 13-8 11-5 11-4h2l-7-16-5-18-1-7v-16l4-20 6-15 8-13 3-4-1-4-13-16-15-20-13-18-18-27-13-21-10-17-13-23-15-29-13-28-15-35-13-35-11-33-8-28-8-32-8-40-5-33-4-40-1-16v-76l3-52 4-40 6-42 7-37 10-42 9-30 9-26 13-32 13-28 12-22 13-21 8-12 10-14 11-14 9-11 12-13 9-10 10-10 8-7 10-9 11-9 16-12 30-20 23-13 30-15 32-13 36-12 29-8 36-8 36-6 21-3 44-4z" fill="#818386"/>
<path transform="translate(1430,330)" d="m0 0 4 1 5 2 14 12 10 9 19 19 9 11 9 10 12 16 12 17 12 19 12 21 13 25 12 27 11 29 11 34 9 34 7 32 8 47 4 32 4 44 1 24v99l-1 19-5 40-5 29-8 39-11 41-13 41-13 35-14 33-12 26-19 38-13 23-10 17-8 13-22 33-10 14-18 24-12 15-2 3 1 4 7 11 7 16 4 15 1 7v16l-3 16-6 18-3 7 20 8 13 8 10 8 9 9 7 10 8 15 4 11 3 16v20l-4 19-5 12v4l19 10 11 8 5 4v2l4 2 10 13 7 12 5 14 3 16 1 7v9l-3 20-6 16-6 11-8 11-5 6-11 9-17 10-14 5-12 3-16 1h-897l-17-1-15-4-13-6-12-7-13-11-11-14-6-10-6-15-2-7 1-6 222-1h615l13-1 14-4 11-5 12-7 11-9 8-8 9-14 8-18 3-13 1-8v-15l-2-14-4-13-4-9-8-14-9-10-2-1v-2l-4-2-13-9-14-8-5-2 1-5 7-25 1-6v-20l-3-15-3-11-5 3-25 20-19 14-24 16-15 9-17 10-21 11-31 14-29 11-30 9-27 6-26 4-28 3h-51l-26-3-25-4-19-4-27-7-24-8-21-8-15-7-23-11-26-14-24-15-19-13-18-14-10-8-11-9-14-12-4-3v-2l-4-2-10-10-8-7-6-6v-2h-2l-7-8-10-11-1-3 5 1 12 10 13 9 15 10 13 8 11 7 13 7 19 10 15 7 16 7 20 8 25 8 26 7 32 6 33 4 13 1h35l26-2 29-4 29-6 32-9 25-9 28-12 16-8 25-13 18-11 27-18 15-11 13-10 11-9 14-12 24-22 24-24 7-8 8-8 7-8 18-22 8-10 13-17 13-18 16-24 14-22 13-22 11-19 7-14 9-17 10-22 7-15 11-26 12-31 12-36 10-34 6-24 7-34 5-30 4-32 3-39v-71l-1-27-4-53-5-40-7-41-8-37-8-30-11-35-12-31-9-20-14-28-10-17-9-15-7-11-6-9-6-7z" fill="#414041"/>
<path transform="translate(714,630)" d="m0 0h621l18 2 20 5 18 7 12 6 17 12 10 9 10 10 12 16 7 12 7 16 6 19 4 22v26l-3 20-5 18-8 18-10 16-12 14-12 11-14 10-16 8-13 5-14 4-17 3h-28l-21-4-21-7-39-17-34-13-35-11-32-8-30-6-28-4-43-3h-34l-42 3-34 5-34 7-30 8-37 12-28 11-34 15-24 8-21 4h-26l-25-5-18-6-21-11-13-10-18-18-11-16-8-16-5-15-4-19-1-8v-31l4-22 7-21 11-21 12-16 9-10 7-7 13-10 14-9 19-9 16-5 16-3z" fill="#FDFDFD"/>
<path transform="translate(736,570)" d="m0 0h567l35 1 22 2 19 4 20 6 24 11 20 12 17 13 12 11 12 12 8 10 12 17 12 22 8 20 7 26 3 19 1 10v33l-5 30-7 23-7 17-9 16-8 12-10 13-12 13-8 7-17 13-13 8-15 8-20 8-24 7-25 4h-32l-29-5-27-8-26-11-36-15-19-7-32-10-24-6-26-5-31-4-25-2h-47l-25 2-41 6-28 6-32 9-32 11-43 18-23 9-23 7-22 4-9 1h-24l-21-3-15-3-21-6-15-6-16-8-14-9-14-10-8-8-5-4-7-8-9-10-9-13-10-17-7-15-6-16-6-24-3-21v-33l4-28 5-20 8-20 8-17 11-18 13-16 9-10 15-15 20-15 26-15 25-10 19-5 18-3 12-1zm-22 60-19 2-17 4-16 6-19 10-16 12-12 11-10 11-11 16-10 19-7 21-4 22v31l3 18 4 15 6 16 8 14 10 13 18 18 13 9 19 10 21 7 22 4h26l25-5 20-7 41-18 30-11 28-9 30-8 39-8 29-4 42-3h34l43 3 33 5 34 7 30 8 36 12 31 12 29 13 19 7 17 4 11 2h28l25-5 15-5 16-8 14-9 14-12 12-13 9-14 8-16 5-14 4-16 2-15v-26l-5-26-6-18-8-16-8-13-11-14-15-15-17-12-10-6-20-8-18-5-11-2-12-1z" fill="#595A5B"/>
<path transform="translate(1430,1377)" d="m0 0 3 4 7 11 7 16 4 15 1 7v16l-3 16-6 18-3 7 20 8 13 8 10 8 9 9 7 10 8 15 4 11 3 16v20l-4 19-5 12v4l19 10 11 8 5 4v2l4 2 10 13 7 12 5 14 3 16 1 7v9l-3 20-6 16-6 11-8 11-5 6-11 9-17 10-14 5-12 3-16 1h-897l-17-1-15-4-13-6-12-7-13-11-11-14-6-10-6-15-2-7 1-6 222-1h615l13-1 14-4 11-5 12-7 11-9 8-8 9-14 8-18 3-13 1-8v-15l-2-14-4-13-4-9-8-14-9-10-2-1v-2l-4-2-13-9-14-8-5-2 1-5 7-25 1-6v-20l-3-15-3-11-1-3 8-7 9-9 6-5 32-32 7-8 6-7h2l2-4 12-12z" fill="#595A5B"/>
<path transform="translate(1430,330)" d="m0 0 4 1 5 2 14 12 10 9 11 11h-3l-14-14v1l3 7 9 9 9 11 5 8v4h2l9 17 2 1 3 6 10 17 4 8v3h2l11 24 10 23 9 24 6 18 9 32 8 34 7 37 6 45 4 41 2 33 1 41v37l-1 22-4 42-4 30-6 32-8 35-8 30-17 51-12 31-11 26-7 15-10 21-10 19-10 18-6 11-14 24-8 13-6 8-5 9-8 11-11 16-12 16-11 14-9 11-12 14-7 8-4 5h-2l-2 4-8 9h-2l-2 4h-2l-2 4-8 8h-2l-2 4h-2l-1 3-8 7-5 5h-2l-1 3-11 9-10 9-11 9-13 10-19 14-15 10-16 10-19 11-27 14-23 10-26 10-18 6-25 7-31 6-30 4-11 1h-52l-46-5-27-5-31-9-25-9-15-6-15-7-32-16-5-2v-2l-5-2-3-1v-2l-4-1-24-14v-2l-7-2-11-8-13-10-8-6v-2l-4-2-9-8h-2l5 7-4-2-10-10v-2h-2l-7-8-10-11-1-3 5 1 12 10 13 9 15 10 13 8 11 7 13 7 19 10 15 7 16 7 20 8 25 8 26 7 32 6 33 4 13 1h35l26-2 29-4 29-6 32-9 25-9 28-12 16-8 25-13 18-11 27-18 15-11 13-10 11-9 14-12 24-22 24-24 7-8 8-8 7-8 18-22 8-10 13-17 13-18 16-24 14-22 13-22 11-19 7-14 9-17 10-22 7-15 11-26 12-31 12-36 10-34 6-24 7-34 5-30 4-32 3-39v-71l-1-27-4-53-5-40-7-41-8-37-8-30-11-35-12-31-9-20-14-28-10-17-9-15-7-11-6-9-6-7z" fill="#595A5B"/>
<path transform="translate(982,243)" d="m0 0h73l42 2 38 4 30 4 30 5 24 5 6 2 14 3 16 5 8 2 13 4 9 3 20 8 13 5 14 7 11 6 19 10 9 6 9 5 10 7 9 6v2l5 2 14 12 10 9 7 7 1 2v7l-4 8-7 5-9 1-11-7-12-9-13-10-13-9-14-9-18-11-16-8-23-11-20-8-14-5-21-7-29-8-20-4-38-7-21-3-41-4-35-1h-63l-38 2-33 3-39 5-26 5-38 9-9 3-20 6-19 7-13 5-17 8-5 3-6 2-3 2h-4v2h-4v2l-14 7-6 4-16 10-9 7h-3v2l-6 4h-2v2l-5 3-3 3h-2v2h-2v2h-2v2l-5 2-2 4-9 7-2 1v2l-4 4h-2l-2 4h-2l-2 4-4 2-1 4h-3l-2 6-5 5-2 3h-2v2h-2l-3 6h-2v2h-2v2h-2l-2 5-8 11h-2l-1 5-3 4-2 1-4 10h-2l-1 5-5 9-5 8-3 7-5 10-3 8-4 8-5 12-3 8-4 10-2 6-2 7-9 27-9 35-6 32-5 30-3 22-4 39-2 33v76l1 22 3 32 6 42 5 25 10 40 11 35 5 12 5 13 3 8v3h2l6 16 3 6 6 14 8 17 5 11 15 30v2h2l13 24 8 13 6 11 6 13v9l-4 6-8 5h-10l-8-6-6-8-7-10-3-6-8-13-4-7-3-6-3-5-8-16-7-12-6-14-8-16-4-10-5-12-10-25-7-19-5-15-11-35-8-31-8-37-2-10-3-19-2-12-2-18-2-21-1-26v-72l2-30 1-22 2-12 3-29 3-21 5-30 6-32 8-32 6-22 1-6h2l1-6 2-7 5-13 7-16 3-7 2-1 1-5 13-27 9-16 5-8 5-10 9-12 4-8h2l2-4 6-9 1-3h2l1-4h2l2-4 5-6 7-8 9-9 1-3 4-4h2l2-4 9-9h2l2-4 7-6h2v-2l5-2v-2l11-7 13-9 4-1v-2l10-6 26-13 5-1v-2l17-8 11-5 13-6 10-4 6-3h4v-2l18-5 16-5 24-6 9-2 46-9 28-4 26-3 19-1 12-1z" fill="#939496"/>
<path transform="translate(630,1305)" d="m0 0h10l6 4 5 7v10l-4 7-3 1v2l-8 2-9-1-7-6-3-8 2-9 5-6z" fill="#939496"/>
<path transform="translate(597,864)" d="m0 0 4 2 9 10 12 12 13 9 15 8-3 1-1 2-3-2v-2l-5-1-2-1v-2l-3 1-4-4-6-3-9-8-10-8-5-7v-3l-4-3z" fill="#4E4D4F"/>
<path transform="translate(1419,660)" d="m0 0 5 2 7 7 6 5 7 8 1 4h2l6 8 4 7v3h2l1 5-3-1-8-14-13-16-13-13-4-3z" fill="#4D4C4E"/>
<path transform="translate(422,769)" d="m0 0h1l1 13 1 2-1 6v20l1 2-1 11-2 2-2-9 1-29z" fill="#929395"/>
<path transform="translate(1175,868)" d="m0 0 9 1 36 12 18 7v2l-10-3-15-5-10-4-14-4-9-3-5-2z" fill="#4F4F50"/>
<path transform="translate(920,855)" d="m0 0h8l-2 3-5-1v2l-7 1-1 2v-2h-3v2l-7 1-4 1-7 1 1-4z" fill="#4B4A4C"/>
<path transform="translate(621,889)" d="m0 0 4 1 10 7 15 8-3 1-1 2-3-2v-2l-5-1-2-1v-2l-3 1-4-4-6-3-2-4z" fill="#4D4D4E"/>
<path transform="translate(1007,845)" d="m0 0h34l-2 3h-34l-15-1v-1z" fill="#606062"/>
<path transform="translate(976,847)" d="m0 0h29v1l-8 1-4 2-4-2h-11v2h-17l1-2 3-1z" fill="#4C4B4C"/>
<path transform="translate(1208,878)" d="m0 0 7 1 23 9v2l-10-3-15-5-5-3z" fill="#535254"/>
<path transform="translate(1264,901)" d="m0 0 6 1 23 9 3 2-3 1-12-4-9-4-8-4z" fill="#535354"/>
<path transform="translate(951,850)" d="m0 0h8l-1 2-9 2-10 1-2 1-3-2 2-2z" fill="#4E4E4F"/>
<path transform="translate(815,886)" d="m0 0h2l-1 3-2 2-7 2-1 2h-7l1-3z" fill="#4E4E4F"/>
<path transform="translate(421,807)" d="m0 0 3 1 1 4-1 11-2 2-2-9v-8z" fill="#939496"/>
<path transform="translate(1621,719)" d="m0 0h1l2 23-1 8h-1l-1-6z" fill="#727375"/>
<path transform="translate(1241,891)" d="m0 0 7 1 13 6v2h-4v-2h-5v-2h-6l-3-3z" fill="#4E4E4F"/>
<path transform="translate(1063,848)" d="m0 0h21l6 2v1l-20-1-7-1z" fill="#4F4E50"/>
<path transform="translate(1136,858)" d="m0 0 11 1 10 3v2l-12-2-9-3z" fill="#4F4E50"/>
<path transform="translate(587,849)" d="m0 0 4 2 7 11 1 2h-4l-4-7v-2l-3-1z" fill="#545456"/>
<path transform="translate(652,908)" d="m0 0 7 1 11 4v2l-13-3v-2h-6z" fill="#4E4D4F"/>
<path transform="translate(636,899)" d="m0 0 6 2 8 4-3 1-1 2-3-2v-2l-5-1-2-1z" fill="#525253"/>
<path transform="translate(1616,684)" d="m0 0h1l3 19v3h-2l-1-2-1-11z" fill="#8B8C8D"/>
<path transform="translate(881,864)" d="m0 0h6l-1 4-7 1-3 1 1-4z" fill="#474748"/>
<path transform="translate(897,860)" d="m0 0h6l-1 4-10 1 1-4z" fill="#484849"/>
<path transform="translate(422,769)" d="m0 0h1l1 13 1 2-2 6-2 2z" fill="#B6B7B8"/>
<path transform="translate(1606,629)" d="m0 0h1l4 21h-2l-3-11z" fill="#8D8E90"/>
<path transform="translate(857,871)" d="m0 0h5v3h-3l-2 2h-7l1-3z" fill="#49494A"/>
<path transform="translate(871,867)" d="m0 0h4l-1 4-7 1-2-2 2-2z" fill="#474647"/>
<path transform="translate(1461,712)" d="m0 0h2l4 10 1 5-3-2-4-9z" fill="#515152"/>
<path transform="translate(1452,697)" d="m0 0 4 2 1 5h2l1 5-3-1-5-9z" fill="#535354"/>
<path transform="translate(1444,686)" d="m0 0h3l6 8v3l-3-1-6-8z" fill="#504F51"/>
<path transform="translate(1264,901)" d="m0 0 6 1 10 4v2l-10-3-6-3z" fill="#4F4E50"/>
<path transform="translate(825,882)" d="m0 0h3l-2 5h-7l1-3z" fill="#4D4D4E"/>
<path transform="translate(845,875)" d="m0 0h4l-1 3-1-1-1 2-8 1 1-3z" fill="#4A4A4B"/>
</svg>
