<?xml version="1.0" encoding="UTF-8"?>
<svg version="1.1" viewBox="0 0 2048 2048" width="512" height="512" xmlns="http://www.w3.org/2000/svg">
<path transform="translate(990,171)" d="m0 0h69l152 6 63 4 60 5 60 6 73 9 76 12 62 12 43 10 32 8 48 14 47 16 39 16 20 9 38 19 23 14 17 11 16 12 17 13 16 15 13 12 9 11 9 10 13 18 12 20 11 22 9 25 6 23 3 15h2v78l-2 3-4 23-7 31-13 43-12 39-16 47-7 19-16 39-11 26-13 27-11 23-12 26-7 18-6 23-3 19-1 10-1 32 2 29 7 49 5 27 13 61 19 85 8 38 10 60 4 36 1 16v46l-2 24-3 24-5 25-6 21-8 21-11 22-10 15-10 14-11 12-7 8-8 8-11 9-11 10-13 9-15 10-16 10-33 17-19 9-52 20-43 13-28 8-49 11-45 9-69 11-66 8-50 5-81 6-57 3-84 3-51 1h-152l-55-1-83-3-60-3-79-6-49-5-52-6-53-8-47-8-73-16-48-14-29-9-49-19-23-11-26-13-24-15-11-8-13-9-11-10-11-9-12-12-9-11-11-13-14-22-8-16-7-16-7-21-5-21-5-33-2-24v-57l4-40 12-72 19-86 10-44 12-57 9-59 2-23v-41l-3-26-4-18-6-20-10-23-16-33-13-28-9-20-15-37-10-26-21-62-19-63-8-32-6-34-1-3v-64l2-8 5-26 8-25 6-15 8-17 9-15 12-18 13-16 12-14 10-10 8-7 7-7 14-11 20-15 17-11 25-15 29-15 21-10 36-15 34-12 33-11 50-14 46-11 28-6 52-10 69-11 54-7 53-6 66-6 72-5 40-2zm-6 81-64 2-98 5-82 6-72 7-73 9-52 8-41 7-55 11-64 16-47 14-32 11-28 11-27 12-32 16-22 13-15 10-21 16-20 18-10 10-9 11-8 11-9 14-10 21-6 18-4 18-2 18v31l3 23 6 28 10 34 15 49 19 55 12 30 15 36 14 29 11 23 11 24 10 23 11 21 13 23 10 17 16 26 10 14 14 20 12 17 12 16 14 17 9 11 12 14 9 11 6 12 2 9-1 10-3 9-6 10-7 6-10 5-15 2-14-3-10-7-16-16-7-8-14-17-12-15-10-13-11-15-3-1-9 53-11 52-16 71-12 55-6 32-5 31-3 22-2 32v33l2 27 5 29 6 22 5 12 9 17 9 12 11 13 8 8 8 7 14 11 24 16 32 17 23 10 27 11 47 15 30 8 51 12 79 14 76 10 50 5 74 6 53 3 68 3 96 2h124l68-1 55-2 82-4 76-6 45-4 86-11 53-9 42-8 64-16 51-16 25-10 24-10 20-10 23-13 20-14 9-7 13-12 7-6 9-11 7-9 9-15 7-16 6-21 5-26 2-18 1-20v-22l-1-23-4-37-10-57-10-47-16-71-14-65-9-55-5 5-14 18-9 12-14 17-9 11-12 13-7 8-14 9-14 3-10-1-11-4-9-7-7-10-3-9-1-5v-7l3-12 8-12 10-11 9-11 5-6v-2h2l11-14 12-15 13-19 10-14 16-23 15-24 12-20 7-12 7-14 12-22 11-26 13-28 8-16 15-32 16-39 11-29 14-40 22-72 8-31 4-22 2-20v-24l-2-19-5-22-7-20-11-21-10-15-14-17-4-5-8-7-8-8-14-11-13-10-15-10-27-16-36-18-36-15-42-15-50-15-65-16-60-12-67-11-68-9-67-7-56-5-75-5-83-4-62-2z"/>
<path transform="translate(255,476)" d="m0 0 13 1 12 6 8 7 9 11 12 13 12 10 12 8 17 10 23 12 23 10 29 11 32 10 24 7 41 10 38 8 46 8 98 13 29 3 110 8 45 2 89 2h116l41-1 101-5 84-7 45-5 60-8 73-13 39-9 40-10 47-15 22-8 40-18 15-4h8l10 2 10 5 5 5 7 8 4 10 1 4v12l-2 9-8 13-12 9-35 16-19 8-50 17-28 8-56 14-68 13-38 6-59 8-69 7-49 4-88 5-102 3-1 290h62l13 3 11 7 7 8 4 8 2 6 1 10v195l-2 15-5 10-8 9-10 6-12 3-62 1-1 72-3 14-7 11-10 8-11 4-4 1h-11l-13-4-9-7-7-8-4-8-2-11-1-72-63-1-11-3-10-6-8-9-4-8-3-14v-201l4-16 8-11 9-7 10-4 5-1h64v-291h-26l-93-3-56-3-100-8-68-9-58-8-53-10-44-10-44-12-38-12-37-14-20-9-27-13-27-16-18-13-11-9-12-11-10-10-11-14-6-10-4-11v-13l5-14 9-10 5-4 11-5zm706 624v118l118 1 1-1v-118z"/>
<path transform="translate(1781,479)" d="m0 0h7l13 3 9 6 8 9 4 9 2 10-1 14-4 10-6 8-7 6-9 4-5 1h-15l-11-3-9-7-6-8-4-9-1-4v-16l3-10 6-10 9-8 6-3z"/>
</svg>
