<?xml version="1.0" encoding="UTF-8"?>
<svg version="1.1" viewBox="0 0 1064 1140" width="1064" height="1140" xmlns="http://www.w3.org/2000/svg">
<path transform="translate(0)" d="m0 0h1064v1140h-1064z" fill="#FEFEFE"/>
<path transform="translate(429,121)" d="m0 0h145l37 2 59 6 52 9 37 9 35 12 26 12 23 13 13 11 8 7 9 8 11 14 10 19 4 8 5 19 1 6v41l-4 21-11 29-2 10v17l9 32 8 25v28l-8 34-4 14 1 25 8 109 22 289 1 17 1 36v47l-3 2-16 1h-28l-2-1-1-14-1-56h-2l-3 69-4 4-32 4h-9l-1-2-1-15v-31h-3l-1 10-2 39-7 3-17 2h-23l-1-1-2-35-1-22-1 7-2 53-1 1h-47l-3-16-2-36-1-4-4 50-2 2h-51l-1-1v-422l-27 3-41 4h-179l-10-1 1 32 1 59 2 190v89l-3 3h-28l-17-1-3-7-2-27-1-1-1 32-1 1h-18l-28-2-7-3-2-36-1-22h-1l-2 58-9 1-34-5-5-2-2-14-2-38-2-3-1 7v44l1 2-2 1h-13l-30-4-3-3-1-13v-53h-4v41l-1 25-4 1h-30l-14-1-2-3-1-20v-42l20-255 3-39 2-55-2-5-12-9-18-18-10-16-7-14-5-14-3-12-1-27 6-29 10-34 1-5v-31l-12-45-4-14-1-7v-20l4-24 10-24 10-16 7-9 4-2 4-6 10-9 9-7 20-12 24-12 29-11 32-9 49-10 44-6 41-4z"/>
<path transform="translate(450,173)" d="m0 0h88l30 1 59 6 59 10 42 10 41 14 21 10 22 13 15 14 11 16 4 12v31l-11 39-5 22v27l8 33 8 28v32l-4 11-6 11-9 11-17 13-10 6-17 9-31 12-31 9-42 9-53 8-60 5-28 1h-77l-29-1-49-4-33-4-43-7-39-10-30-11-27-13-8-4-19-13-15-15-8-12-6-17v-12l5-27 10-35 4-25-1-11-4-21-10-35-4-24 2-17 7-16 9-13 14-11 17-11 9-5 25-11 28-10 42-11 49-9 45-5z" fill="#FEFEFE"/>
<path transform="translate(410,226)" d="m0 0h175l39 4 42 7 36 9 24 9 18 10 7 7 5 4 6 14-1 16-8 15-8 9-18 11-15 6-24 8-41 8-31 4-54 4-23 1h-75l-29-1-58-6-40-6-40-10-20-7-21-11-7-7-5-4-7-11-1-3v-19l6-11 11-11 19-11 27-10 35-8 45-7z"/>
<path transform="translate(828,584)" d="m0 0h5l10 89 17 146v26l-5 5-37 7-37 5h-62l-1-1-4-79-5-80-1-41v-27l1-5 29-9 33-11 26-10z" fill="#FEFEFE"/>
<path transform="translate(208,611)" d="m0 0 12 3 26 8 37 9 41 6 7 3 1 1-1 123-1 50h-17l-67-12-48-9-8-4v-18l5-50 7-57z" fill="#FEFEFE"/>
</svg>
